<svg xmlns="http://www.w3.org/2000/svg" xmlns:xlink="http://www.w3.org/1999/xlink" width="19" height="19" viewBox="0 0 19 19"><defs><path id="2zgla" d="M591 342.36v14.06c0 .87-.7 1.58-1.58 1.58h-15.84c-.87 0-1.58-.7-1.58-1.58v-14.06c0-.87.7-1.58 1.58-1.58h2.58v-1.19a.6.6 0 1 1 1.18 0v1.2h3.57v-1.2a.6.6 0 1 1 1.18 0v1.2h3.57v-1.2a.6.6 0 1 1 1.18 0v1.2h2.58c.87 0 1.58.7 1.58 1.57zm-1.19 0a.4.4 0 0 0-.4-.4h-2.57v1.2a.6.6 0 1 1-1.18 0v-1.2h-3.57v1.2a.6.6 0 1 1-1.18 0v-1.2h-3.57v1.2a.6.6 0 1 1-1.18 0v-1.2h-2.58a.4.4 0 0 0-.4.4v14.06c0 .21.19.4.4.4h15.84a.4.4 0 0 0 .4-.4z"/><path id="2zglb" d="M576.16 347.91v-1.78h2.38v1.78z"/><path id="2zglc" d="M576.16 350.87v-1.78h2.38v1.78z"/><path id="2zgld" d="M576.16 353.84v-1.78h2.38v1.78z"/><path id="2zgle" d="M580.31 353.84v-1.78h2.38v1.78z"/><path id="2zglf" d="M580.31 350.87v-1.78h2.38v1.78z"/><path id="2zglg" d="M580.31 347.91v-1.78h2.38v1.78z"/><path id="2zglh" d="M584.47 353.84v-1.78h2.38v1.78z"/><path id="2zgli" d="M584.47 350.87v-1.78h2.38v1.78z"/><path id="2zglj" d="M584.47 347.91v-1.78h2.38v1.78z"/></defs><g><g transform="translate(-572 -339)"><g><use fill="##747474" xlink:href="#2zgla"/></g><g><use fill="##747474" xlink:href="#2zglb"/></g><g><use fill="##747474" xlink:href="#2zglc"/></g><g><use fill="##747474" xlink:href="#2zgld"/></g><g><use fill="##747474" xlink:href="#2zgle"/></g><g><use fill="##747474" xlink:href="#2zglf"/></g><g><use fill="##747474" xlink:href="#2zglg"/></g><g><use fill="##747474" xlink:href="#2zglh"/></g><g><use fill="##747474" xlink:href="#2zgli"/></g><g><use fill="##747474" xlink:href="#2zglj"/></g></g></g></svg>
