<svg xmlns="http://www.w3.org/2000/svg" xmlns:xlink="http://www.w3.org/1999/xlink" width="61" height="60" viewBox="0 0 61 60"><defs><path id="zjnna" d="M200.7 293c0-16.57 13.37-30 29.86-30a29.93 29.93 0 0 1 29.86 30c0 16.57-13.37 30-29.86 30a29.93 29.93 0 0 1-29.86-30z"/><path id="zjnnb" d="M232.85 286.75v-6.96c0-.31.25-.56.56-.56h3.1c.31 0 .56.25.56.56v6.96c0 .3-.25.55-.55.55h-3.11a.55.55 0 0 1-.56-.55zm6.05-8.72h-16.07s-1.47 10.73.52 10.73h15.11c2 0 .44-10.73.44-10.73z"/><path id="zjnnc" d="M233.4 287.3h3.11c.3 0 .55-.25.55-.55v-6.96c0-.31-.24-.56-.55-.56h-3.1c-.31 0-.56.25-.56.56v6.96c0 .3.25.55.55.55zm8.04-9.27h-2.55v9.32c0 .77-.62 1.39-1.38 1.39h-13.3c-.76 0-1.38-.62-1.38-1.4v-9.31h-3.8a3.6 3.6 0 0 0-3.6 3.62v22.65c0 2 1.61 3.62 3.6 3.62h23.03a3.6 3.6 0 0 0 3.6-3.62v-22.03z"/><path id="zjnnd" d="M240.89 295.62h-18.52c-.64.04-.9.3-1.1.61-.2.32-.25.72-.26.86V306a.49.49 0 1 1-.97 0v-8.87c0-.04 0-.58.28-1.18.26-.6.92-1.27 2.01-1.3h.02l18.54-.01c.26 0 .48.22.48.49s-.22.48-.48.48z"/></defs><g><g transform="translate(-200 -263)"><use fill="#b6e2eb" xlink:href="#zjnna"/></g><g transform="translate(-200 -263)"><g><use fill="#bfbebe" xlink:href="#zjnnb"/></g><g><use fill="#357180" xlink:href="#zjnnc"/></g><g><use fill="#2f6e77" xlink:href="#zjnnd"/></g></g></g></svg>