<svg xmlns="http://www.w3.org/2000/svg" xmlns:xlink="http://www.w3.org/1999/xlink" width="119" height="115" viewBox="0 0 119 115"><defs><path id="1r8ua" d="M635.33 270.08a4.87 4.87 0 0 0 4.87 4.87h85.78c2.7 0 4.88-2.18 4.88-4.87v-65.04h-95.53z"/><path id="1r8ub" d="M635.33 266.6a4.87 4.87 0 0 0 4.87 4.88h85.78c2.7 0 4.88-2.18 4.88-4.87v-61.57h-95.53z"/><path id="1r8uc" d="M635.33 205.03v-3.47h95.53v3.47z"/><path id="1r8ud" d="M725.98 183.07H640.2a4.87 4.87 0 0 0-4.87 4.87v13.63h95.53v-13.63a4.87 4.87 0 0 0-4.88-4.87z"/><path id="1r8ue" d="M647.36 178a3 3 0 0 1 6 0v10a3 3 0 0 1-6 0z"/><path id="1r8uf" d="M659.9 178a3 3 0 0 1 6 0v9.8a3 3 0 0 1-6 0z"/><path id="1r8ug" d="M700.2 178a3 3 0 0 1 6 0v9.8a3 3 0 0 1-6 0z"/><path id="1r8uh" d="M712.8 178a3 3 0 0 1 6 0v9.8a3 3 0 0 1-6 0z"/><path id="1r8ui" d="M661 225.5a2.5 2.5 0 1 1 5 0 2.5 2.5 0 0 1-5 0z"/><path id="1r8uj" d="M675.37 251.95c0-.56.46-1.02 1.02-1.02h13.23c.56 0 1.02.46 1.02 1.02v2.5c0 .56-.46 1.02-1.02 1.02H676.4c-.56 0-1.02-.46-1.02-1.02z"/><path id="1r8uk" d="M700 225.5a2.5 2.5 0 1 1 5 0 2.5 2.5 0 0 1-5 0z"/><path id="1r8ul" d="M640 161.5a1.5 1.5 0 1 1 3 0v10a1.5 1.5 0 1 1-3 0z"/><path id="1r8um" d="M617.18 168.3a1.5 1.5 0 1 1 2.12-2.12l7.08 7.07a1.5 1.5 0 1 1-2.12 2.12z"/><path id="1r8un" d="M613.5 192a1.5 1.5 0 1 1 0-3h10a1.5 1.5 0 1 1 0 3z"/></defs><g><g transform="translate(-612 -160)"><g><use fill="#ebf0f3" xlink:href="#1r8ua"/></g><g><use fill="#fff" xlink:href="#1r8ub"/></g><g><use fill="#ebf0f3" xlink:href="#1r8uc"/></g><g><use fill="#f2706d" xlink:href="#1r8ud"/></g><g><use fill="#5a7182" xlink:href="#1r8ue"/></g><g><use fill="#5a7182" xlink:href="#1r8uf"/></g><g><use fill="#5a7182" xlink:href="#1r8ug"/></g><g><use fill="#5a7182" xlink:href="#1r8uh"/></g><g opacity=".8"><use fill="#5e7485" xlink:href="#1r8ui"/></g><g opacity=".8"><use fill="#5e7485" xlink:href="#1r8uj"/></g><g opacity=".8"><use fill="#5e7485" xlink:href="#1r8uk"/></g><g><use fill="#f2706d" xlink:href="#1r8ul"/></g><g><use fill="#f2706d" xlink:href="#1r8um"/></g><g><use fill="#f2706d" xlink:href="#1r8un"/></g></g></g></svg>