<?xml version="1.0" encoding="UTF-8"?>
<svg width="15px" height="19px" viewBox="0 0 15 19" version="1.1" xmlns="http://www.w3.org/2000/svg" xmlns:xlink="http://www.w3.org/1999/xlink">
    <!-- Generator: Sketch 49 (51002) - http://www.bohemiancoding.com/sketch -->
    <title>placeholder (1)</title>
    <desc>Created with Sketch.</desc>
    <defs></defs>
    <g id="Page-1" stroke="none" stroke-width="1" fill="none" fill-rule="evenodd">
        <g id="conflist-home-page-logged-in" transform="translate(-574.000000, -1672.000000)" fill="#747474" fill-rule="nonzero">
            <g id="conf-card" transform="translate(309.000000, 1628.000000)">
                <g id="placeholder-(1)" transform="translate(265.000000, 44.000000)">
                    <path d="M7.48825065,0 C3.36031332,0 0,3.41761006 0,7.61593291 C0,8.09392034 0.0430809399,8.57589099 0.133159269,9.04591195 C0.137075718,9.07379455 0.152741514,9.15744235 0.184073107,9.30083857 C0.297650131,9.81467505 0.466057441,10.3205451 0.68537859,10.8025157 C1.4921671,12.7343816 3.26631854,15.7018868 7.15926893,18.8805031 C7.25718016,18.9601677 7.37467363,19 7.4921671,19 C7.60966057,19 7.72715405,18.9601677 7.82506527,18.8805031 C11.7140992,15.7018868 13.4921671,12.7343816 14.2989556,10.8025157 C14.5182768,10.3205451 14.6866841,9.81865828 14.8002611,9.30083857 C14.8315927,9.15744235 14.8472585,9.07379455 14.8511749,9.04591195 C14.9373368,8.57589099 14.9843342,8.09392034 14.9843342,7.61593291 C14.9765013,3.41761006 11.616188,0 7.48825065,0 Z M13.8015666,8.85870021 C13.8015666,8.86666667 13.7976501,8.87463312 13.7976501,8.88259958 C13.7937337,8.90251572 13.7819843,8.96226415 13.7624021,9.05387841 C13.7624021,9.05786164 13.7624021,9.05786164 13.7624021,9.06184486 C13.6644909,9.50796646 13.5195822,9.94213836 13.3276762,10.3603774 C13.3237598,10.3643606 13.3237598,10.372327 13.3198433,10.3763103 C12.5874674,12.1408805 10.9817232,14.833543 7.48825065,17.7691824 C3.99477807,14.833543 2.38903394,12.1408805 1.65665796,10.3763103 C1.65274151,10.372327 1.65274151,10.3643606 1.64882507,10.3603774 C1.46083551,9.94612159 1.31592689,9.50796646 1.21409922,9.06184486 C1.21409922,9.05786164 1.21409922,9.05786164 1.21409922,9.05387841 C1.19060052,8.96226415 1.18276762,8.90251572 1.17885117,8.88259958 C1.17885117,8.87463312 1.17493473,8.86666667 1.17493473,8.85471698 C1.09660574,8.44444444 1.05744125,8.03018868 1.05744125,7.61194969 C1.05744125,4.00712788 3.94386423,1.07148847 7.48825065,1.07148847 C11.0326371,1.07148847 13.9190601,4.00712788 13.9190601,7.61194969 C13.9190601,8.03417191 13.8798956,8.4524109 13.8015666,8.85870021 Z" id="Shape"></path>
                    <path d="M7.48999023,4 C5.83677771,4 4.48999023,5.36975157 4.48999023,7.05115304 C4.48999023,8.73255451 5.83677771,10.1023061 7.48999023,10.1023061 C9.14320275,10.1023061 10.4899902,8.73255451 10.4899902,7.05115304 C10.4899902,5.36975157 9.14320275,4 7.48999023,4 Z M7.48999023,9.42371356 C6.20251083,9.42371356 5.15720605,8.35807197 5.15720605,7.05115304 C5.15720605,5.74423411 6.204982,4.67859252 7.48999023,4.67859252 C8.77499847,4.67859252 9.82277442,5.74423411 9.82277442,7.05115304 C9.82277442,8.35807197 8.77746964,9.42371356 7.48999023,9.42371356 Z" id="Shape"></path>
                </g>
            </g>
        </g>
    </g>
</svg>
