<svg xmlns="http://www.w3.org/2000/svg" xmlns:xlink="http://www.w3.org/1999/xlink" width="60" height="60" viewBox="0 0 60 60"><defs><path id="ftfqa" d="M200 409a30 30 0 1 1 60 0 30 30 0 0 1-60 0z"/><path id="ftfqb" d="M249.15 417.28h-38.29a2.82 2.82 0 0 1-2.81-2.81v-11.64a2.82 2.82 0 0 1 2.81-2.81h38.29a2.82 2.82 0 0 1 2.81 2.81v11.64a2.82 2.82 0 0 1-2.81 2.8z"/><path id="ftfqc" d="M211.83 410.53c.31.2.78.35 1.26.35.72 0 1.14-.38 1.14-.93 0-.5-.29-.8-1.02-1.08-.9-.32-1.45-.78-1.45-1.55 0-.85.7-1.48 1.77-1.48.56 0 .96.13 1.2.27l-.19.57c-.18-.1-.54-.26-1.04-.26-.74 0-1.02.45-1.02.82 0 .51.33.76 1.08 1.05.92.36 1.4.8 1.4 1.6 0 .85-.63 1.58-1.92 1.58-.52 0-1.1-.16-1.39-.35z"/><path id="ftfqd" d="M216.62 405.93v3.23c0 1.22.54 1.74 1.27 1.74.81 0 1.33-.53 1.33-1.74v-3.23h.71v3.18c0 1.68-.88 2.37-2.06 2.37-1.12 0-1.96-.64-1.96-2.34v-3.21h.71z"/><path id="ftfqe" d="M222.45 405.89c.7 0 1.16.12 1.5.4.28.2.45.53.45.96 0 .53-.35.99-.92 1.2v.01c.51.13 1.12.56 1.12 1.37 0 .47-.18.83-.46 1.1-.38.34-1 .5-1.89.5-.48 0-.85-.03-1.09-.06V406c.3-.06.8-.11 1.29-.11zm.05 2.35c.75 0 1.19-.4 1.19-.92 0-.64-.49-.89-1.2-.89-.33 0-.51.03-.63.05v1.76zm-.04 2.65c.72 0 1.4-.27 1.4-1.07 0-.74-.64-1.05-1.41-1.05h-.58v2.08c.13.03.34.04.59.04z"/><path id="ftfqf" d="M225.46 410.53c.31.2.78.35 1.26.35.72 0 1.14-.38 1.14-.93 0-.5-.29-.8-1.02-1.08-.9-.32-1.45-.78-1.45-1.55 0-.85.7-1.48 1.77-1.48.56 0 .96.13 1.2.27l-.19.57c-.18-.1-.54-.26-1.04-.26-.74 0-1.02.45-1.02.82 0 .51.33.76 1.08 1.05.92.36 1.4.8 1.4 1.6 0 .85-.63 1.58-1.92 1.58-.52 0-1.1-.16-1.39-.35z"/><path id="ftfqg" d="M233.37 411.2c-.26.14-.78.27-1.44.27-1.54 0-2.7-.97-2.7-2.76 0-1.71 1.16-2.87 2.85-2.87.68 0 1.11.15 1.3.24l-.17.58a2.57 2.57 0 0 0-1.1-.23c-1.28 0-2.13.82-2.13 2.25 0 1.34.76 2.2 2.1 2.2.42 0 .86-.1 1.14-.23z"/><path id="ftfqh" d="M235.6 405.89c.76 0 1.24.14 1.58.45.28.24.43.61.43 1.03 0 .72-.45 1.2-1.03 1.4v.02c.42.14.67.53.8 1.1.18.76.31 1.29.43 1.5h-.73a6.97 6.97 0 0 1-.37-1.3c-.16-.76-.45-1.04-1.1-1.07h-.66v2.37h-.7V406c.36-.07.87-.11 1.35-.11zm-.64 2.6h.72c.75 0 1.23-.41 1.23-1.04 0-.7-.51-1-1.26-1.02-.34 0-.58.04-.7.07z"/><path id="ftfqi" d="M239.31 405.93v5.46h-.7v-5.46h.7z"/><path id="ftfqj" d="M241.83 405.89c.7 0 1.15.12 1.5.4.28.2.45.53.45.96 0 .53-.35.99-.92 1.2v.01c.51.13 1.12.56 1.12 1.37 0 .47-.18.83-.46 1.1-.38.34-1 .5-1.89.5-.48 0-.85-.03-1.09-.06V406c.3-.06.8-.11 1.29-.11zm.05 2.35c.75 0 1.19-.4 1.19-.92 0-.64-.49-.89-1.2-.89-.33 0-.51.03-.62.05v1.76zm-.04 2.65c.72 0 1.4-.27 1.4-1.07 0-.74-.64-1.05-1.41-1.05h-.59v2.08c.14.03.34.04.6.04z"/><path id="ftfqk" d="M247.77 408.83h-2.13v1.97h2.37v.59h-3.07v-5.46h2.95v.6h-2.24v1.72h2.12v.58z"/></defs><g><g transform="translate(-200 -379)"><use fill="#b6e2eb" xlink:href="#ftfqa"/></g><g transform="translate(-200 -379)"><g><use fill="#f2706d" xlink:href="#ftfqb"/></g><g><use fill="#fff" xlink:href="#ftfqc"/></g><g><use fill="#fff" xlink:href="#ftfqd"/></g><g><use fill="#fff" xlink:href="#ftfqe"/></g><g><use fill="#fff" xlink:href="#ftfqf"/></g><g><use fill="#fff" xlink:href="#ftfqg"/></g><g><use fill="#fff" xlink:href="#ftfqh"/></g><g><use fill="#fff" xlink:href="#ftfqi"/></g><g><use fill="#fff" xlink:href="#ftfqj"/></g><g><use fill="#fff" xlink:href="#ftfqk"/></g></g></g></svg>