<svg xmlns="http://www.w3.org/2000/svg" xmlns:xlink="http://www.w3.org/1999/xlink" width="1449" height="251" viewBox="0 0 1449 251"><defs><path id="a" d="M89.64 256.09l-3.69 3.6-1.04-5.05-3.6-3.69 5.05-1.04 3.69-3.6 1.04 5.05 3.6 3.69z"/><path id="b" d="M116 262a3 3 0 1 1 6 0 3 3 0 0 1-6 0z"/><path id="c" d="M1275 287a3 3 0 1 1 6 0 3 3 0 0 1-6 0z"/><path id="d" d="M1250.88 279.72l1.03 2.8-2.9-.64-2.8 1.03.63-2.9-1.03-2.8 2.9.63 2.8-1.03z"/><path id="e" d="M513.8 348.64l-2.12 2.09-.6-2.92-2.09-2.13 2.92-.6 2.13-2.09.6 2.92 2.09 2.13z"/><path id="f" d="M879.7 410.52c-4.47 0-8.98-.9-13.28-2.76a.93.93 0 0 1-.49-1.23.94.94 0 0 1 1.23-.49 31.48 31.48 0 0 0 34.95-6.77 31.71 31.71 0 0 0 9.32-22.53 31.7 31.7 0 0 0-9.32-22.52 31.5 31.5 0 0 0-22.45-9.35 31.47 31.47 0 0 0-22.44 9.35 31.74 31.74 0 0 0-6.74 35.1.94.94 0 0 1-.49 1.23.93.93 0 0 1-1.23-.49 33.6 33.6 0 0 1 7.14-37.16 33.35 33.35 0 0 1 23.76-9.9 33.4 33.4 0 0 1 23.78 9.9 33.57 33.57 0 0 1 9.86 23.85c0 8.99-3.5 17.46-9.87 23.84a33.41 33.41 0 0 1-23.73 9.93z"/><path id="g" d="M843.16 424.4l-11.89-11.93a.94.94 0 0 1-.27-.66v-5.3c0-.25.1-.49.27-.66l14.53-14.58a.94.94 0 0 1 1.32 0l17.17 17.23a.94.94 0 0 1 0 1.32l-14.53 14.57a.92.92 0 0 1-.66.28h-5.28a.94.94 0 0 1-.66-.27zm1.05-1.6h4.5l13.6-13.64-15.85-15.9-13.59 13.64v4.52z"/><path id="h" d="M855.42 418.77a.9.9 0 0 1-.6-.22l-18.49-15.9a.93.93 0 0 1-.1-1.32.91.91 0 0 1 1.31-.1l18.49 15.9a.93.93 0 0 1-.61 1.64z"/><path id="i" d="M859.42 414.78a.92.92 0 0 1-.6-.23l-18.49-15.9a.93.93 0 0 1-.1-1.32.91.91 0 0 1 1.31-.1l18.49 15.9a.94.94 0 0 1-.61 1.65z"/><path id="j" d="M851.42 422.77a.95.95 0 0 1-.61-.22l-18.48-15.9a.93.93 0 0 1-.1-1.32.91.91 0 0 1 1.31-.1l18.49 15.9a.93.93 0 0 1-.61 1.64z"/><path id="k" d="M839.78 424.9c-1.83 0-3.76-1.01-5.76-3.01-5.22-5.25-2.12-8.48-1.98-8.62a.94.94 0 0 1 1.32 0c.36.37.36.95.01 1.32-.1.11-1.85 2.14 1.97 5.97 3.85 3.86 5.87 2.06 5.96 1.98a.93.93 0 0 1 1.31.03c.35.37.35.94-.01 1.31-.09.09-.95.91-2.49 1.01l-.33.01z"/><path id="l" d="M855.88 435.06a.92.92 0 0 1-.28-.05.92.92 0 0 1-.64-.72c-.79-4.34-2.87-10.47-5.04-10.5a.93.93 0 0 1-.92-.94c0-.52.43-.98.94-.93 3.66.04 5.68 6.74 6.49 10.26 10.84-11.88 4.7-20.6 4.64-20.69a.93.93 0 1 1 1.5-1.11c.08.11 7.58 10.75-6.03 24.4a.94.94 0 0 1-.66.28z"/><path id="m" d="M833.16 406.76a.93.93 0 0 1-.93-.93c-.03-2.18-6.13-4.26-10.46-5.05a.95.95 0 0 1-.73-.64.97.97 0 0 1 .23-.95c13.62-13.66 24.22-6.13 24.32-6.05.42.3.51.88.21 1.3a.94.94 0 0 1-1.31.21c-.36-.26-8.85-6.18-20.63 4.65 3.51.81 10.2 2.84 10.23 6.51a.94.94 0 0 1-.92.95z"/><path id="n" d="M845.93 392.84a.95.95 0 0 1-.66-.27.95.95 0 0 1 0-1.33l2.97-2.97a.93.93 0 0 1 1.32.01c.36.36.36.96 0 1.32l-2.97 2.97a.93.93 0 0 1-.66.27z"/><path id="o" d="M863.93 410.85a.94.94 0 0 1-.66-1.6l2.97-2.98a.94.94 0 1 1 1.32 1.33l-2.97 2.97a.9.9 0 0 1-.66.28z"/><path id="p" d="M853.93 395.5a.94.94 0 0 1-.66-1.6l6.61-6.63a.94.94 0 0 1 1.32 0c.36.37.36.96 0 1.33l-6.61 6.62a.9.9 0 0 1-.66.28z"/><path id="q" d="M860.93 402.5a.94.94 0 0 1-.66-1.6l6.61-6.63a.94.94 0 0 1 1.32 0c.36.37.36.96 0 1.33l-6.61 6.62a.9.9 0 0 1-.66.28z"/><path id="r" d="M866.87 389.53l-.1-.01-5.94-.65a.94.94 0 0 1-.82-1.04.95.95 0 0 1 1.03-.83l5.93.66c.51.06.89.52.83 1.04a.94.94 0 0 1-.93.83z"/><path id="s" d="M867.6 395.84a.94.94 0 0 1-.93-.83l-.66-5.97a.94.94 0 0 1 .82-1.04.93.93 0 0 1 1.03.83l.67 5.97a.94.94 0 0 1-.82 1.04h-.11z"/><path id="t" d="M863.93 386.09a.97.97 0 0 1-.66-.27.95.95 0 0 1 0-1.33l9.19-9.22a.94.94 0 1 1 1.32 1.33l-9.19 9.22a.93.93 0 0 1-.66.27z"/><path id="u" d="M872.22 377.27a.94.94 0 0 1-.66-1.6 2.82 2.82 0 0 0 0-3.97 2.87 2.87 0 0 0-3.97 0 .94.94 0 0 1-1.32 0 .95.95 0 0 1 0-1.33 4.68 4.68 0 0 1 6.61 6.63.97.97 0 0 1-.66.27z"/><path id="v" d="M867.03 377.17a.93.93 0 0 1-.66-.27 4.68 4.68 0 0 1 0-6.63.94.94 0 0 1 1.32 0c.36.37.36.96 0 1.33a2.8 2.8 0 0 0 0 3.97c.36.37.36.96 0 1.33a.93.93 0 0 1-.66.27z"/><path id="w" d="M869.93 393.09a.95.95 0 0 1-.66-.27.95.95 0 0 1 0-1.33l9.19-9.22a.94.94 0 1 1 1.32 1.33l-9.19 9.22a.93.93 0 0 1-.66.27z"/><path id="x" d="M884.22 389.27a.9.9 0 0 1-.66-.28.92.92 0 0 1 0-1.32 2.82 2.82 0 0 0-.01-3.98 2.86 2.86 0 0 0-3.96 0 .92.92 0 0 1-1.32 0 .94.94 0 0 1 0-1.32 4.67 4.67 0 0 1 6.61 0 4.7 4.7 0 0 1 0 6.62.9.9 0 0 1-.66.28z"/><path id="y" d="M881.57 389.97a4.67 4.67 0 0 1-3.3-1.37.95.95 0 0 1 0-1.33.94.94 0 0 1 1.32 0 2.8 2.8 0 0 0 3.97 0 .94.94 0 0 1 1.32 0c.36.37.36.96 0 1.33a4.67 4.67 0 0 1-3.31 1.37z"/><path id="z" d="M874.25 384.2a.93.93 0 0 1-.66-.28l-1.32-1.32a.95.95 0 0 1 0-1.33.94.94 0 0 1 1.32 0l1.32 1.33c.37.37.37.96 0 1.32a.9.9 0 0 1-.66.28z"/><path id="A" d="M863.93 359.19a.97.97 0 0 1-.66-.27.95.95 0 0 1 0-1.33 22.25 22.25 0 0 1 15.85-6.59c5.98 0 11.61 2.34 15.85 6.59.36.37.36.96 0 1.33a.95.95 0 0 1-1.33 0 20.36 20.36 0 0 0-14.52-6.05 20.4 20.4 0 0 0-14.53 6.05.93.93 0 0 1-.66.27z"/><path id="B" d="M815.2 442c-.47 0-.77-.2-.94-.37-2.11-2.11 9.13-14.45 9.25-14.57a3.82 3.82 0 0 1 5.28 0 3.75 3.75 0 0 1 0 5.3c-.1.1-10.84 9.64-13.59 9.64zm10.95-14.16c-.5 0-.97.19-1.32.55-1.35 1.35-7.12 8.48-8.68 11.35 2.86-1.56 9.97-7.35 11.32-8.7a1.88 1.88 0 0 0-1.32-3.2z"/><path id="C" d="M811.46 447.49c-1.1 0-1.96-.3-2.56-.9-1.79-1.8-.92-5.85 2.67-12.37 2.68-4.88 6.18-9.76 7.9-11.48a9.25 9.25 0 0 1 6.6-2.74c2.5 0 4.84.97 6.6 2.74a9.4 9.4 0 0 1 0 13.25c-2.85 2.87-15.39 11.5-21.21 11.5zm14.61-25.62c-2 0-3.87.78-5.28 2.2-1.63 1.64-5.07 6.47-7.59 11.05-3.43 6.25-3.75 9.37-2.98 10.14.24.24.65.36 1.24.36 4.9 0 16.9-7.95 19.89-10.95a7.53 7.53 0 0 0 0-10.6 7.38 7.38 0 0 0-5.28-2.2z"/><path id="D" d="M892.94 443.87a.94.94 0 0 1-.94-.93c0-.52.41-.94.93-.94h.01a.94.94 0 0 1 0 1.87z"/><path id="E" d="M816.94 338.87a.94.94 0 0 1-.94-.93c0-.52.41-.94.92-.94h.02a.94.94 0 0 1 0 1.87z"/><path id="F" d="M851.94 342.87a.94.94 0 0 1-.94-.93c0-.52.41-.94.92-.94h.02a.94.94 0 0 1 0 1.87z"/><path id="G" d="M799.94 361.87a.94.94 0 0 1-.94-.93c0-.52.41-.94.92-.94h.02a.94.94 0 0 1 0 1.87z"/><path id="H" d="M812.94 415.87a.94.94 0 0 1-.94-.93c0-.52.41-.94.92-.94h.02a.94.94 0 0 1 0 1.87z"/><path id="I" d="M859.94 454.87a.94.94 0 0 1-.94-.93c0-.52.41-.94.93-.94h.01a.94.94 0 0 1 0 1.87z"/><path id="J" d="M904.94 456.87a.94.94 0 0 1-.94-.93c0-.52.41-.94.93-.94h.01a.94.94 0 0 1 0 1.87z"/><path id="K" d="M876.94 420.87a.94.94 0 0 1-.94-.93c0-.52.41-.94.93-.94h.01a.94.94 0 0 1 0 1.87z"/><path id="L" d="M907.94 415.87a.94.94 0 0 1-.94-.93c0-.52.41-.94.93-.94h.01a.94.94 0 0 1 0 1.87z"/><path id="M" d="M889.94 437.87a.94.94 0 0 1-.94-.93c0-.52.41-.94.93-.94h.01a.94.94 0 0 1 0 1.87z"/><path id="N" d="M894.34 447.74a9.37 9.37 0 0 1 0-18.74 9.36 9.36 0 0 1 0 18.74zm0-16.87a7.5 7.5 0 0 0 0 14.99 7.49 7.49 0 0 0 0-14.99z"/><path id="O" d="M896.8 438.62a2.81 2.81 0 0 1 0-5.62 2.8 2.8 0 0 1 0 5.62zm0-3.75a.94.94 0 0 0-.93.94.93.93 0 0 0 1.86 0 .93.93 0 0 0-.93-.94z"/><path id="P" d="M870.93 445.37a.94.94 0 0 1-.93-.94v-7.49a.94.94 0 1 1 1.87 0v7.49c0 .52-.42.94-.94.94z"/><path id="Q" d="M872.67 441.87h-3.74a.93.93 0 0 1 0-1.87h3.74a.94.94 0 0 1 0 1.87z"/><path id="R" d="M838.93 453.37a.94.94 0 0 1-.93-.94v-7.49a.94.94 0 1 1 1.87 0v7.49c0 .52-.42.94-.94.94z"/><path id="S" d="M840.67 449.87h-3.74a.93.93 0 0 1 0-1.87h3.74a.94.94 0 0 1 0 1.87z"/><path id="T" d="M838.93 354.37a.94.94 0 0 1-.93-.94v-7.49a.94.94 0 1 1 1.87 0v7.49c0 .52-.42.94-.94.94z"/><path id="U" d="M840.67 349.87h-3.74a.93.93 0 0 1 0-1.87h3.74a.94.94 0 0 1 0 1.87z"/><path id="V" d="M805.93 397.37a.94.94 0 0 1-.93-.94v-7.49a.94.94 0 1 1 1.87 0v7.49c0 .52-.42.94-.94.94z"/><path id="W" d="M807.67 392.87h-3.74a.93.93 0 0 1 0-1.87h3.74a.93.93 0 1 1 0 1.87z"/><path id="X" d="M822.54 376.05a6.5 6.5 0 0 1-6.54-6.56c0-1.75.68-3.39 1.91-4.63a6.68 6.68 0 0 1 9.25 0 6.53 6.53 0 0 1 1.91 4.63 6.54 6.54 0 0 1-6.53 6.56zm0-11.24c-1.25 0-2.42.49-3.3 1.37a4.64 4.64 0 0 0-1.37 3.31c0 1.26.48 2.43 1.37 3.32a4.77 4.77 0 0 0 6.6 0 4.67 4.67 0 0 0 1.36-3.32 4.67 4.67 0 0 0-4.66-4.68z"/><path id="Y" d="M817.39 376.63c-.43 0-.81-.13-1.12-.43a.95.95 0 0 1 0-1.33.94.94 0 0 1 1.19-.11c.6-.03 2.73-1.16 5.42-3.86s3.81-4.83 3.85-5.43a.94.94 0 0 1 .11-1.2.94.94 0 0 1 1.32 0c1.88 1.9-2.97 6.96-3.96 7.95-.84.84-4.53 4.41-6.81 4.41z"/><path id="Z" d="M95.24 282.44c-.68 0-1.24-.54-1.24-1.22 0-.67.54-1.22 1.21-1.22h.03a1.22 1.22 0 1 1 0 2.44z"/><path id="aa" d="M100.24 282.44c-.68 0-1.24-.54-1.24-1.22 0-.67.54-1.22 1.21-1.22h.03a1.22 1.22 0 1 1 0 2.44z"/><path id="ab" d="M105.24 282.44c-.68 0-1.24-.54-1.24-1.22 0-.67.54-1.22 1.21-1.22h.03a1.22 1.22 0 1 1 0 2.44z"/><path id="ac" d="M244.73 284.33H90.23c-.68 0-1.23-.55-1.23-1.22v-2.44a3.67 3.67 0 0 1 3.68-3.67h149.59a3.67 3.67 0 0 1 3.68 3.67v2.44c0 .67-.55 1.22-1.22 1.22zm-153.28-2.44H243.5v-1.22c0-.68-.55-1.23-1.23-1.23H92.68c-.68 0-1.23.55-1.23 1.23z"/><path id="ad" d="M244.73 387.08H90.23c-.68 0-1.23-.55-1.23-1.22V283.22c0-.67.55-1.22 1.23-1.22h154.5c.67 0 1.22.55 1.22 1.22v102.64c0 .67-.55 1.22-1.22 1.22zm-153.28-2.44H243.5v-100.2H91.45z"/><path id="ae" d="M185.51 350.09H97.23c-.68 0-1.23-.54-1.23-1.22v-58.65c0-.67.55-1.22 1.23-1.22h88.28c.68 0 1.23.55 1.23 1.22v58.65c0 .68-.55 1.22-1.23 1.22zm-87.06-2.44h85.84v-56.21H98.45z"/><path id="af" d="M185.51 345.44H97.23a1.22 1.22 0 1 1 0-2.44h88.28a1.22 1.22 0 0 1 0 2.44z"/><path id="ag" d="M102.23 350.33c-.68 0-1.23-.55-1.23-1.22v-4.89a1.23 1.23 0 0 1 2.45 0v4.89c0 .67-.55 1.22-1.22 1.22z"/><path id="ah" d="M181.23 350.33c-.68 0-1.23-.55-1.23-1.22v-4.89a1.23 1.23 0 0 1 2.45 0v4.89c0 .67-.55 1.22-1.22 1.22z"/><path id="ai" d="M141.68 350.33a3.67 3.67 0 1 1-.02-7.34 3.67 3.67 0 0 1 .02 7.34zm0-4.89a1.23 1.23 0 1 0 0 0z"/><path id="aj" d="M141.71 331.32A14.7 14.7 0 0 1 127 316.66 14.7 14.7 0 0 1 141.71 302a14.7 14.7 0 0 1 14.72 14.66 14.7 14.7 0 0 1-14.72 14.66zm0-26.88a12.25 12.25 0 0 0-12.26 12.22 12.26 12.26 0 1 0 24.53 0c0-6.74-5.51-12.22-12.27-12.22z"/><path id="ak" d="M137.23 325.11c-.21 0-.42-.06-.61-.16a1.24 1.24 0 0 1-.62-1.07v-14.66a1.23 1.23 0 0 1 1.86-1.05l12.26 7.33a1.23 1.23 0 0 1 0 2.1l-12.26 7.33c-.2.12-.42.18-.63.18zm1.22-13.73v10.34l8.66-5.17z"/><path id="al" d="M212.84 306.11h-19.61c-.68 0-1.23-.55-1.23-1.23v-14.66c0-.67.55-1.22 1.23-1.22h19.61c.68 0 1.23.55 1.23 1.22v14.66c0 .68-.55 1.23-1.23 1.23zm-1.22-2.45v-12.22h-17.17v12.22z"/><path id="am" d="M235.39 294.44h-17.16a1.22 1.22 0 1 1 0-2.44h17.16a1.22 1.22 0 0 1 0 2.44z"/><path id="an" d="M235.39 299.44h-17.16a1.22 1.22 0 1 1 0-2.44h17.16a1.22 1.22 0 0 1 0 2.44z"/><path id="ao" d="M228.04 304.44h-9.81a1.22 1.22 0 1 1 0-2.44h9.81a1.22 1.22 0 1 1 0 2.44z"/><path id="ap" d="M212.84 328.11h-19.61c-.68 0-1.23-.55-1.23-1.23v-14.66c0-.67.55-1.22 1.23-1.22h19.61c.68 0 1.23.55 1.23 1.22v14.66c0 .68-.55 1.23-1.23 1.23zm-1.22-2.45v-12.22h-17.17v12.22z"/><path id="aq" d="M235.39 316.44h-17.16a1.22 1.22 0 1 1 0-2.44h17.16a1.22 1.22 0 0 1 0 2.44z"/><path id="ar" d="M235.39 321.44h-17.16a1.22 1.22 0 1 1 0-2.44h17.16a1.22 1.22 0 0 1 0 2.44z"/><path id="as" d="M228.04 326.44h-9.81a1.22 1.22 0 1 1 0-2.44h9.81a1.22 1.22 0 1 1 0 2.44z"/><path id="at" d="M212.84 350.11h-19.61c-.68 0-1.23-.55-1.23-1.23v-14.66c0-.67.55-1.22 1.23-1.22h19.61c.68 0 1.23.55 1.23 1.22v14.66c0 .68-.55 1.23-1.23 1.23zm-1.22-2.45v-12.22h-17.17v12.22z"/><path id="au" d="M235.39 338.44h-17.16a1.22 1.22 0 1 1 0-2.44h17.16a1.22 1.22 0 0 1 0 2.44z"/><path id="av" d="M235.39 343.44h-17.16a1.22 1.22 0 1 1 0-2.44h17.16a1.22 1.22 0 0 1 0 2.44z"/><path id="aw" d="M228.04 348.44h-9.81a1.22 1.22 0 1 1 0-2.44h9.81a1.22 1.22 0 1 1 0 2.44z"/><path id="ax" d="M212.84 372.11h-19.61c-.68 0-1.23-.55-1.23-1.23v-14.66c0-.67.55-1.22 1.23-1.22h19.61c.68 0 1.23.55 1.23 1.22v14.66c0 .68-.55 1.23-1.23 1.23zm-1.22-2.45v-12.22h-17.17v12.22z"/><path id="ay" d="M235.39 360.44h-17.16a1.22 1.22 0 1 1 0-2.44h17.16a1.22 1.22 0 0 1 0 2.44z"/><path id="az" d="M235.39 365.44h-17.16a1.22 1.22 0 1 1 0-2.44h17.16a1.22 1.22 0 0 1 0 2.44z"/><path id="aA" d="M228.04 370.44h-9.81a1.22 1.22 0 1 1 0-2.44h9.81a1.22 1.22 0 1 1 0 2.44z"/><path id="aB" d="M235.39 382.44h-17.16a1.22 1.22 0 1 1 0-2.44h17.16a1.22 1.22 0 0 1 0 2.44z"/><path id="aC" d="M185.51 372.11H97.23c-.68 0-1.23-.55-1.23-1.23v-14.66c0-.67.55-1.22 1.23-1.22h88.28c.68 0 1.23.55 1.23 1.22v14.66c0 .68-.55 1.23-1.23 1.23zm-87.06-2.45h85.84v-12.22H98.45z"/><path id="aD" d="M180.89 362.44h-68.66a1.22 1.22 0 1 1 0-2.44h68.66a1.22 1.22 0 0 1 0 2.44z"/><path id="aE" d="M136.75 367.44h-24.52a1.22 1.22 0 1 1 0-2.44h24.52a1.22 1.22 0 0 1 0 2.44z"/><path id="aF" d="M107.13 367.33h-4.9c-.68 0-1.23-.55-1.23-1.22v-4.89c0-.67.55-1.22 1.23-1.22h4.9c.68 0 1.23.55 1.23 1.22v4.89c0 .67-.55 1.22-1.23 1.22zm-3.68-2.44h2.46v-2.45h-2.46z"/><path id="aG" d="M97.23 381.89c-.68 0-1.23-.55-1.23-1.22v-2.45a1.23 1.23 0 0 1 2.45 0v2.45c0 .67-.55 1.22-1.22 1.22z"/><path id="aH" d="M185.51 379.44H97.23a1.22 1.22 0 1 1 0-2.44h88.28a1.22 1.22 0 0 1 0 2.44z"/><path id="aI" d="M186.23 381.89c-.68 0-1.23-.55-1.23-1.22v-2.45a1.23 1.23 0 0 1 2.45 0v2.45c0 .67-.55 1.22-1.22 1.22z"/><path id="aJ" d="M193.23 381.89c-.68 0-1.23-.55-1.23-1.22v-2.45a1.23 1.23 0 0 1 2.45 0v2.45c0 .67-.55 1.22-1.22 1.22z"/><path id="aK" d="M212.84 379.44h-19.61a1.22 1.22 0 1 1 0-2.44h19.61a1.22 1.22 0 0 1 0 2.44z"/><path id="aL" d="M213.23 381.89c-.68 0-1.23-.55-1.23-1.22v-2.45a1.23 1.23 0 0 1 2.45 0v2.45c0 .67-.55 1.22-1.22 1.22z"/><path id="aO" d="M102 264a1 1 0 1 1 2 0 1 1 0 0 1-2 0z"/><path id="aP" d="M110 244a1 1 0 1 1 2 0 1 1 0 0 1-2 0z"/><path id="aQ" d="M81 271.5a2.5 2.5 0 1 1 5 0 2.5 2.5 0 0 1-5 0z"/><path id="aR" d="M1181.04 366.07c-.57 0-1.04-.46-1.04-1.04 0-.57.45-1.03 1.02-1.03h.02c.57 0 1.03.46 1.03 1.03 0 .58-.46 1.04-1.03 1.04z"/><path id="aS" d="M1282.7 389.68h-121.67c-.57 0-1.03-.46-1.03-1.04v-78.61c0-.57.46-1.03 1.03-1.03h121.67c.57 0 1.03.46 1.03 1.03v78.61c0 .58-.46 1.04-1.03 1.04zm-120.64-2.07h119.61v-76.54h-119.61z"/><path id="aT" d="M1254.16 344.28a5.17 5.17 0 0 1-4.47-7.76c.28-.5.91-.67 1.41-.38.49.28.66.92.38 1.41a3.1 3.1 0 1 0 5.36.01c-.29-.5-.11-1.13.38-1.41a1.03 1.03 0 0 1 1.41.38 5.17 5.17 0 0 1-4.47 7.75z"/><path id="aU" d="M1254.03 339.76c-.57 0-1.03-.47-1.03-1.04v-20.69a1.03 1.03 0 1 1 2.06 0v20.69c0 .57-.46 1.04-1.03 1.04z"/><path id="aV" d="M1264.28 325.21h-8.25a1.04 1.04 0 0 1 0-2.07h7.22v-2.07h-7.22c-.57 0-1.03-.46-1.03-1.04 0-.57.46-1.03 1.03-1.03h8.25c.57 0 1.03.46 1.03 1.03v4.14c0 .57-.46 1.04-1.03 1.04z"/><path id="aW" d="M1272.34 330.07h-10.31c-.57 0-1.03-.46-1.03-1.04 0-.57.46-1.03 1.03-1.03h10.31c.57 0 1.03.46 1.03 1.03 0 .58-.46 1.04-1.03 1.04z"/><path id="aX" d="M1272.16 326.07h-4.13c-.57 0-1.03-.46-1.03-1.04 0-.57.46-1.03 1.03-1.03h4.13c.57 0 1.03.46 1.03 1.03 0 .58-.46 1.04-1.03 1.04z"/><path id="aY" d="M1272.09 330.21c-.26 0-.52-.11-.73-.31l-2.06-2.07c-.4-.4-.4-1.05 0-1.46l2.06-2.07c.41-.4 1.06-.4 1.46 0 .4.41.4 1.06 0 1.47l-1.33 1.33 1.33 1.34a1.04 1.04 0 0 1-.73 1.77z"/><path id="aZ" d="M1180.19 371.41a6.2 6.2 0 0 1 0-12.41 6.2 6.2 0 0 1 0 12.41zm0-10.34a4.13 4.13 0 1 0 0 8.27 4.13 4.13 0 0 0 0-8.27z"/><path id="ba" d="M1187.03 359.94a1.04 1.04 0 0 1-.69-1.8c23.78-21.78 59.23-17.88 59.59-17.85.56.07.96.59.9 1.15-.07.57-.54.97-1.15.91-.33-.04-34.87-3.82-57.95 17.32-.2.18-.45.27-.7.27z"/><path id="bb" d="M1241.03 344.14a1.04 1.04 0 0 1-.46-1.96l4.12-2.07a1.04 1.04 0 0 1 1.39.46c.25.51.05 1.13-.46 1.39l-4.13 2.07c-.15.07-.3.11-.46.11z"/><path id="bc" d="M1245.16 342.14c-.16 0-.32-.04-.47-.11l-4.12-2.07a1.04 1.04 0 0 1-.46-1.39c.25-.51.87-.71 1.38-.46l4.13 2.07c.51.25.71.87.46 1.38-.18.37-.55.58-.92.58z"/><path id="bd" d="M1217.16 328.21c-.27 0-.53-.11-.73-.31l-4.13-4.13c-.4-.41-.4-1.06 0-1.47.4-.4 1.06-.4 1.46 0l4.12 4.14c.41.4.41 1.06 0 1.46-.2.2-.46.31-.72.31z"/><path id="be" d="M1213.03 328.21a1.04 1.04 0 0 1-.73-1.77l4.13-4.14a1.03 1.03 0 1 1 1.45 1.47l-4.12 4.13c-.2.2-.47.31-.73.31z"/><path id="bf" d="M1215.19 331.41a6.2 6.2 0 0 1 0-12.41 6.2 6.2 0 0 1 0 12.41zm0-10.34a4.13 4.13 0 1 0 0 8.27 4.13 4.13 0 0 0 0-8.27z"/><path id="bg" d="M1188.22 338.27c-.27 0-.53-.1-.73-.3l-6.19-6.2c-.4-.41-.4-1.06 0-1.47.4-.4 1.06-.4 1.46 0l6.19 6.21c.4.4.4 1.06 0 1.46-.2.2-.47.3-.73.3z"/><path id="bh" d="M1182.03 338.27c-.26 0-.53-.1-.73-.3-.4-.4-.4-1.06 0-1.46l6.19-6.21c.4-.4 1.05-.4 1.46 0 .4.41.4 1.06 0 1.47l-6.19 6.2c-.2.2-.47.3-.73.3z"/><path id="bi" d="M1211.16 374.21c-.27 0-.53-.11-.73-.31l-4.13-4.13c-.4-.41-.4-1.06 0-1.47.4-.4 1.06-.4 1.46 0l4.12 4.14c.41.4.41 1.06 0 1.46a.99.99 0 0 1-.72.31z"/><path id="bj" d="M1207.03 374.21a1.04 1.04 0 0 1-.73-1.77l4.13-4.14a1.03 1.03 0 1 1 1.45 1.47l-4.12 4.13a1 1 0 0 1-.73.31z"/><path id="bk" d="M1209.19 377.41a6.2 6.2 0 0 1 0-12.41 6.2 6.2 0 0 1 0 12.41zm0-10.34a4.13 4.13 0 1 0 0 8.27 4.13 4.13 0 0 0 0-8.27z"/><path id="bl" d="M1237.22 367.27c-.27 0-.53-.1-.73-.3l-6.19-6.2c-.4-.41-.4-1.06 0-1.47.4-.4 1.06-.4 1.46 0l6.19 6.21c.4.4.4 1.06 0 1.46-.2.2-.47.3-.73.3z"/><path id="bm" d="M1231.03 367.27c-.26 0-.53-.1-.73-.3-.4-.4-.4-1.06 0-1.46l6.19-6.21c.4-.4 1.05-.4 1.46 0 .4.41.4 1.06 0 1.47l-6.19 6.2c-.2.2-.46.3-.73.3z"/><path id="bn" d="M1261.16 376.21c-.27 0-.53-.11-.73-.31l-4.13-4.13c-.4-.41-.4-1.06 0-1.47.4-.4 1.06-.4 1.46 0l4.12 4.14c.41.4.41 1.06 0 1.46a.99.99 0 0 1-.72.31z"/><path id="bo" d="M1257.03 376.21a1.04 1.04 0 0 1-.73-1.77l4.13-4.14a1.03 1.03 0 1 1 1.45 1.47l-4.12 4.13a1 1 0 0 1-.73.31z"/><path id="bp" d="M1259.19 379.41a6.2 6.2 0 0 1 0-12.41 6.2 6.2 0 0 1 0 12.41zm0-10.34a4.13 4.13 0 1 0 0 8.27 4.13 4.13 0 0 0 0-8.27z"/><path id="bq" d="M1222.16 303.21h-4.13c-.57 0-1.03-.47-1.03-1.04v-4.14c0-.57.46-1.03 1.03-1.03h4.13c.57 0 1.03.46 1.03 1.03v4.14c0 .57-.46 1.04-1.03 1.04zm-3.1-2.07h2.06v-2.07h-2.06z"/><path id="br" d="M1286.95 311.34h-129.92c-.57 0-1.03-.46-1.03-1.03v-8.28c0-.57.46-1.03 1.03-1.03h129.92c.57 0 1.03.46 1.03 1.03v8.28c0 .57-.46 1.03-1.03 1.03zm-128.89-2.07h127.86v-6.2h-127.86z"/><path id="bs" d="M1280.58 307.07h-117.55c-.57 0-1.03-.46-1.03-1.04 0-.57.46-1.03 1.03-1.03h117.55c.57 0 1.03.46 1.03 1.03 0 .58-.46 1.04-1.03 1.04z"/><path id="bt" d="M1247.87 417.03a.97.97 0 0 1-.46-.11l-27.84-13.96a1.04 1.04 0 0 1-.46-1.39c.25-.51.87-.72 1.38-.46l27.84 13.96a1.03 1.03 0 0 1-.46 1.96z"/><path id="bu" d="M1256.12 416.17c-.16 0-.31-.04-.46-.11l-36.09-18.1a1.04 1.04 0 0 1-.46-1.39c.25-.51.87-.72 1.38-.46l36.09 18.1a1.03 1.03 0 0 1-.46 1.96z"/><path id="bv" d="M1256.28 417.07h-8.25c-.57 0-1.03-.46-1.03-1.04 0-.57.46-1.03 1.03-1.03h8.25c.57 0 1.03.46 1.03 1.03 0 .58-.46 1.04-1.03 1.04z"/><path id="bw" d="M1192.03 417.03c-.38 0-.74-.21-.92-.57a1.04 1.04 0 0 1 .46-1.39l27.84-13.96a1.03 1.03 0 0 1 .92 1.85l-27.84 13.96a.92.92 0 0 1-.46.11z"/><path id="bx" d="M1184.03 416.17c-.38 0-.74-.21-.92-.57a1.04 1.04 0 0 1 .46-1.39l36.09-18.1a1.03 1.03 0 0 1 .92 1.85l-36.09 18.1c-.14.07-.3.11-.46.11z"/><path id="by" d="M1192.28 417.07h-8.25c-.57 0-1.03-.46-1.03-1.04 0-.57.46-1.03 1.03-1.03h8.25c.57 0 1.03.46 1.03 1.03 0 .58-.46 1.04-1.03 1.04z"/><path id="bz" d="M1218.03 399.9c-.57 0-1.03-.47-1.03-1.04v-9.83a1.03 1.03 0 1 1 2.06 0v9.83c0 .57-.46 1.04-1.03 1.04z"/><path id="bA" d="M1222.03 399.9c-.57 0-1.03-.47-1.03-1.04v-9.83a1.03 1.03 0 1 1 2.06 0v9.83c0 .57-.46 1.04-1.03 1.04z"/><path id="bB" d="M1222.03 417c-.57 0-1.03-.46-1.03-1.04v-12.93a1.03 1.03 0 1 1 2.06 0v12.93c0 .58-.46 1.04-1.03 1.04z"/><path id="bC" d="M1222.16 417.07h-4.13c-.57 0-1.03-.46-1.03-1.04 0-.57.46-1.03 1.03-1.03h4.13c.57 0 1.03.46 1.03 1.03 0 .58-.46 1.04-1.03 1.04z"/><path id="bD" d="M1218.03 417c-.57 0-1.03-.46-1.03-1.04v-12.93a1.03 1.03 0 1 1 2.06 0v12.93c0 .58-.46 1.04-1.03 1.04z"/><path id="bE" d="M1261 268a1 1 0 1 1 2 0 1 1 0 0 1-2 0z"/><path id="bF" d="M1311 280a1 1 0 1 1 2 0 1 1 0 0 1-2 0z"/><path id="bH" d="M1303.93 304.37a.94.94 0 0 1-.93-.94v-7.49a.94.94 0 1 1 1.87 0v7.49c0 .52-.42.94-.94.94z"/><path id="bI" d="M1304.67 299.87h-3.74a.93.93 0 0 1 0-1.87h3.74a.94.94 0 0 1 0 1.87z"/><path id="bK" d="M1291.36 261.77a.35.35 0 1 1 .22-.66l2.31.75a.35.35 0 1 1-.22.67zm2.52-1.28a.35.35 0 1 1 .22-.67l2.31.76a.35.35 0 1 1-.22.66zm2.24 2.83a.35.35 0 1 1 .21-.67l2.32.75a.35.35 0 1 1-.22.67zm-3.78 1.93a.35.35 0 1 1 .21-.67l2.32.75a.35.35 0 1 1-.22.67z"/><path id="bL" d="M476.32 449.61c-.72 0-1.32-.58-1.32-1.31 0-.72.57-1.3 1.29-1.3h.03c.72 0 1.3.58 1.3 1.3a1.3 1.3 0 0 1-1.3 1.31z"/><path id="bM" d="M476.32 457.61c-.72 0-1.32-.58-1.32-1.31 0-.72.57-1.3 1.29-1.3h.03c.72 0 1.3.58 1.3 1.3a1.3 1.3 0 0 1-1.3 1.31z"/><path id="bN" d="M476.32 465.61c-.72 0-1.32-.58-1.32-1.31 0-.72.57-1.3 1.29-1.3h.03c.72 0 1.3.58 1.3 1.3a1.3 1.3 0 0 1-1.3 1.31z"/><path id="bO" d="M529.27 470.58H422.3a1.3 1.3 0 0 1-1.3-1.3v-13.01c0-7.88 4.05-10.89 11.53-13.68 4-1.5 12.89-4.98 17.9-7.46a1.3 1.3 0 0 1 1.15 2.34c-5.1 2.53-14.09 6.05-18.14 7.56-6.66 2.49-9.83 4.81-9.83 11.24v11.7h104.36v-11.7c0-6.43-3.17-8.75-9.84-11.24-4.03-1.51-13.01-5.03-18.13-7.56a1.3 1.3 0 0 1-.59-1.74c.31-.65 1.1-.91 1.75-.6 5.02 2.49 13.89 5.97 17.89 7.46 7.48 2.79 11.53 5.8 11.53 13.68v13.01c0 .72-.58 1.3-1.31 1.3z"/><path id="bP" d="M475.61 438.79c-12.28 0-32.61-18.92-32.61-40.49 0-.72.58-1.3 1.3-1.3.73 0 1.31.58 1.31 1.3 0 19.54 18.72 37.89 30 37.89 11.29 0 30.01-18.35 30.01-37.89a1.3 1.3 0 1 1 2.6 0c0 21.57-20.32 40.49-32.61 40.49z"/><path id="bQ" d="M444.56 397.45c-.12 0-.23-.02-.34-.04-.52-.15-.91-.6-.96-1.14-1.14-12.14 1.5-21.82 7.83-28.78 9.41-10.32 24.84-12.49 36.13-12.49 6.39 0 10.84.7 11.03.73a1.3 1.3 0 0 1 .29 2.5c-5.92 2.43-5.27 8.18-4.74 10.46 2.38-.07 7.38.46 11.07 4.78 4.02 4.68 5.23 12.38 3.59 22.88a1.3 1.3 0 0 1-.99 1.06 1.27 1.27 0 0 1-1.36-.52l-8.52-12.15c-2.99 1.3-12.1 4.88-21.79 4.88-9.68 0-18.69-3.57-21.67-4.88l-8.51 12.15c-.24.36-.65.56-1.06.56zm53.48-15.65c.41 0 .82.2 1.07.55l7.2 10.29c.82-8-.33-13.87-3.41-17.48-2.89-3.36-6.77-3.86-8.82-3.86-.64 0-1.03.05-1.07.05a1.32 1.32 0 0 1-1.42-.86c-1.06-3.04-1.52-8.87 2.59-12.59a80.88 80.88 0 0 0-6.96-.29c-10.76 0-25.43 2.02-34.2 11.64-5.18 5.68-7.66 13.44-7.39 23.09l6.99-9.99c.37-.52 1.06-.7 1.64-.42.11.05 10.56 5.08 21.54 5.08 11 0 21.57-5.03 21.68-5.08.18-.09.37-.13.56-.13z"/><path id="bR" d="M526.32 415.61c-.72 0-1.32-.59-1.32-1.31 0-.72.57-1.3 1.29-1.3h.03a1.3 1.3 0 0 1 0 2.61z"/><path id="bS" d="M526.32 405c-4.29 0-9.94-3.56-14.05-8.86a1.3 1.3 0 0 1 2.07-1.59c3.58 4.62 8.51 7.85 11.98 7.85 6.38 0 16.95-10.22 16.95-21.1a1.3 1.3 0 0 1 2.61 0c0 12.63-12.19 23.7-19.56 23.7z"/><path id="bT" d="M558.53 423.25H506.3a1.3 1.3 0 0 1 0-2.61h50.92v-5.29c0-3.39-1.23-4.78-5.75-6.47-.6-.23-1.34-.47-2.16-.75l-1.77-.59a1.3 1.3 0 0 1 .85-2.47l1.75.59c.85.29 1.62.54 2.25.78 4.71 1.76 7.44 3.78 7.44 8.91v6.6c0 .72-.58 1.3-1.3 1.3z"/><path id="bU" d="M424.61 423.67H393.3a1.3 1.3 0 0 1-1.3-1.3v-8.69c0-5.09 2.7-7.09 7.37-8.83 2.67-1 6.11-2.33 9.03-3.72a1.3 1.3 0 0 1 1.74.61 1.3 1.3 0 0 1-.62 1.74c-3 1.44-6.51 2.79-9.23 3.81-4.46 1.66-5.68 3.04-5.68 6.39v7.38h30a1.3 1.3 0 0 1 0 2.61z"/><path id="bV" d="M446.16 423.61H425.3a1.3 1.3 0 0 1-1.3-1.31c0-.72.58-1.3 1.3-1.3h20.86c.72 0 1.3.58 1.3 1.3a1.3 1.3 0 0 1-1.3 1.31z"/><path id="bW" d="M425.57 403.4c-7.38 0-19.57-11.73-19.57-25.1 0-.72.58-1.3 1.3-1.3.73 0 1.31.58 1.31 1.3 0 11.6 10.58 22.49 16.96 22.49 3.43 0 8.32-3.39 11.89-8.25a1.3 1.3 0 1 1 2.11 1.54c-4.17 5.66-9.66 9.32-14 9.32z"/><path id="bX" d="M420.13 407.43a1.3 1.3 0 0 1-.92-.38l-7.83-7.82a1.31 1.31 0 0 1 1.85-1.85l7.16 7.16 4.42-2.19a1.3 1.3 0 0 1 1.75.59 1.3 1.3 0 0 1-.59 1.75l-5.26 2.61a1.3 1.3 0 0 1-.58.13z"/><path id="bY" d="M430.56 407.43c-.19 0-.39-.04-.58-.13l-5.26-2.61a1.3 1.3 0 0 1 1.17-2.34l4.41 2.19 7.17-7.16a1.3 1.3 0 0 1 1.84 0c.51.51.51 1.34 0 1.85l-7.82 7.82c-.25.25-.59.38-.93.38z"/><path id="bZ" d="M401.3 379.56a1.4 1.4 0 0 1-.65-.17c-.4-.24-.65-.67-.65-1.13 0-13.13 6.56-19.03 9.75-21.13l-1.51-1.39a1.31 1.31 0 0 1 .45-2.19c.71-.25 17.49-6.12 27.94.83 4.83 3.21 7.47 8.58 7.88 15.98a1.3 1.3 0 0 1-1.23 1.37c-.77.11-1.34-.51-1.38-1.23-.35-6.53-2.61-11.22-6.71-13.95-7.35-4.88-18.81-2.48-23.51-1.18l1.15 1.06c.33.3.48.75.4 1.18-.07.44-.36.8-.77.98-.38.16-8.91 4.06-9.78 17.43 5.51-2.9 21.1-10.32 35.03-9.5.45.03.86.29 1.07.69l2.79 5.22a1.3 1.3 0 0 1-2.3 1.23l-2.44-4.57c-15.99-.57-34.68 10.19-34.87 10.3-.2.11-.43.17-.66.17z"/><path id="ca" d="M424.91 410.22a1.3 1.3 0 0 1-.92-.39l-2.61-2.6a1.31 1.31 0 0 1 1.85-1.85l2.61 2.61a1.3 1.3 0 0 1 0 1.84 1.3 1.3 0 0 1-.93.39z"/><path id="cb" d="M425.3 410.22a1.3 1.3 0 0 1-.92-.39 1.3 1.3 0 0 1 0-1.84l2.61-2.61a1.31 1.31 0 0 1 1.85 1.85l-2.61 2.6a1.3 1.3 0 0 1-.93.39z"/><path id="cc" d="M422.31 421.35l-.15-.01a1.3 1.3 0 0 1-1.15-1.44l1.3-11.74c.08-.72.7-1.23 1.44-1.15a1.3 1.3 0 0 1 1.16 1.44l-1.31 11.74a1.3 1.3 0 0 1-1.29 1.16z"/><path id="cd" d="M427.61 421.35c-.66 0-1.22-.5-1.3-1.16l-1.3-11.74a1.3 1.3 0 0 1 1.15-1.44 1.3 1.3 0 0 1 1.44 1.15l1.31 11.74c.08.71-.44 1.36-1.16 1.44l-.14.01z"/><path id="ce" d="M550.3 404.02a1.3 1.3 0 0 1-1.3-1.31V378.3a1.3 1.3 0 0 1 2.61 0v24.41a1.3 1.3 0 0 1-1.31 1.31z"/><path id="cf" d="M505.3 368.65a1.3 1.3 0 0 1-1.16-1.88A24.66 24.66 0 0 1 526.35 353c.72 0 1.3.58 1.3 1.3a1.3 1.3 0 0 1-1.3 1.31c-8.49 0-16.1 4.72-19.87 12.32-.23.46-.7.72-1.18.72z"/><path id="cg" d="M549.79 379.08a1.3 1.3 0 0 1-1.31-1.3 22.2 22.2 0 0 0-22.18-22.17 1.3 1.3 0 0 1 0-2.61 24.81 24.81 0 0 1 24.79 24.78c0 .72-.58 1.3-1.3 1.3z"/><path id="ch" d="M513.3 379.82a1.3 1.3 0 0 1-.35-2.56c17.5-4.89 29.91-15.82 30.04-15.93a1.29 1.29 0 0 1 1.83.11 1.3 1.3 0 0 1-.1 1.84c-.52.46-12.96 11.43-31.07 16.49-.11.03-.23.05-.35.05z"/><path id="ci" d="M550.57 381.38c-.11 0-.22-.01-.34-.04-12.62-3.32-18.65-9.88-18.9-10.16a1.3 1.3 0 0 1 1.94-1.75c.06.06 5.81 6.28 17.63 9.39a1.3 1.3 0 1 1-.33 2.56z"/><path id="cj" d="M545.3 382.37a1.3 1.3 0 0 1-1.3-1.3v-2.77a1.3 1.3 0 0 1 2.61 0v2.77c0 .72-.58 1.3-1.31 1.3z"/><path id="ck" d="M532.3 420.93c-.33 0-.66-.13-.92-.38a1.3 1.3 0 0 1 0-1.84l6.86-6.91-1.69-1.68a1.3 1.3 0 0 1 .2-2.01l6.24-4.16-3.67-2.58a1.3 1.3 0 0 1 1.51-2.13l5.22 3.67c.35.25.56.65.55 1.08 0 .43-.22.83-.58 1.07l-6.5 4.34 1.48 1.48c.51.51.51 1.33.01 1.84l-7.78 7.82a1.3 1.3 0 0 1-.93.39z"/><path id="cl" d="M521.08 420.78c-.34 0-.67-.13-.92-.39l-7.78-7.82a1.3 1.3 0 0 1 0-1.84l1.48-1.48-1.28-.86a1.3 1.3 0 1 1 1.45-2.17l2.61 1.74a1.31 1.31 0 0 1 .2 2.01l-1.69 1.68 6.86 6.91c.51.51.5 1.33-.01 1.84-.25.25-.59.38-.92.38z"/><path id="cm" d="M527.13 410.22c-5.69 0-8.63-2.87-8.75-2.99a1.31 1.31 0 0 1 1.84-1.86c.09.1 2.36 2.24 6.91 2.24 4.55 0 6.89-2.2 6.91-2.22a1.3 1.3 0 0 1 1.84 0 1.3 1.3 0 0 1 0 1.84c-.12.12-3.06 2.99-8.75 2.99z"/><path id="cn" d="M453.3 434.22a1.3 1.3 0 0 1-1.3-1.31v-2.61c0-.72.58-1.3 1.3-1.3.73 0 1.31.58 1.31 1.3v2.61a1.3 1.3 0 0 1-1.31 1.31z"/><path id="co" d="M463.74 446.65c-.38 0-.76-.17-1.02-.49l-10.43-13.04a1.31 1.31 0 0 1 .2-1.84 1.31 1.31 0 0 1 1.83.21l10.44 13.04a1.3 1.3 0 0 1-1.02 2.12z"/><path id="cp" d="M464.3 446.82a1.3 1.3 0 0 1-1.16-.72 1.31 1.31 0 0 1 .58-1.75l10.44-5.21a1.3 1.3 0 0 1 1.16 2.33l-10.43 5.22c-.19.09-.39.13-.59.13z"/><path id="cq" d="M498.3 434.22c-.71 0-1.3-.59-1.3-1.31v-2.61a1.3 1.3 0 0 1 2.61 0v2.61a1.3 1.3 0 0 1-1.31 1.31z"/><path id="cr" d="M487.3 446.65a1.31 1.31 0 0 1-1.02-2.12l10.44-13.04a1.3 1.3 0 1 1 2.04 1.63l-10.44 13.04c-.25.32-.63.49-1.02.49z"/><path id="cs" d="M487.74 446.82c-.19 0-.39-.04-.58-.13l-10.44-5.22a1.3 1.3 0 0 1 1.17-2.33l10.44 5.21a1.3 1.3 0 1 1-.59 2.47z"/><path id="cu" d="M562 354a3 3 0 1 1 6 0 3 3 0 0 1-6 0z"/><path id="cv" d="M521 326a1 1 0 1 1 2 0 1 1 0 0 1-2 0z"/><path id="cw" d="M542.43 332.96a.52.52 0 1 1 .7-.76l2.68 2.5a.52.52 0 1 1-.7.76zm5.65-.2a.52.52 0 1 1 .7-.76l2.69 2.5a.52.52 0 1 1-.71.76zm-.53 4.97a.52.52 0 1 1 .7-.76l2.68 2.5a.52.52 0 1 1-.7.76zm-4.24.15a.52.52 0 1 1 .7-.76l2.68 2.5a.52.52 0 1 1-.7.76z"/><path id="cx" d="M84.85 270.59c-12.62-2.57-39.22-19.99-56.35-23.42-11.42-2.28-31.59-2.28-60.5 0zm170.46 74.09c10.18 6.82 47.6 40.82 63.19 46.49 15.59 5.68 57.5 16.5 79.74 12.31zm315.86 76.09c36.09.27 75.17 12.17 112.73 10.4 37.56-1.77 79.92-17.68 112.73-20.95zm507.76-52.32c-25.84-4.87-50.52-13.72-55.93-13.28-49.5 4-63.14 16.74-99.5 32.5zm23.07 2.96c23.48 1.23 32.62-7.25 41.4-10.93l-64.47 7.97c7.75 1.46 15.6 2.57 23.07 2.96zm41.4-10.93l10.6-1.31c-4-.78-7.27-.08-10.6 1.31zm270.93-115.47c-10.61-1.79-50.89-14.31-77.83-.84-33 16.51-46.23 42.04-56.89 53.02zm2.17-.84l-2.17.84c2.38.4 3.27.26 2.17-.84z"/><clipPath id="aM"><use fill="#fff" xlink:href="#a"/></clipPath><clipPath id="aN"><use fill="#fff" xlink:href="#b"/></clipPath><clipPath id="bG"><use fill="#fff" xlink:href="#c"/></clipPath><clipPath id="bJ"><use fill="#fff" xlink:href="#d"/></clipPath><clipPath id="ct"><use fill="#fff" xlink:href="#e"/></clipPath></defs><g transform="translate(32 -226)"><use fill="#fff" xlink:href="#f"/><use fill="#fff" xlink:href="#g"/><use fill="#fff" xlink:href="#h"/><use fill="#fff" xlink:href="#i"/><use fill="#fff" xlink:href="#j"/><use fill="#fff" xlink:href="#k"/><use fill="#fff" xlink:href="#l"/><use fill="#fff" xlink:href="#m"/><use fill="#fff" xlink:href="#n"/><use fill="#fff" xlink:href="#o"/><use fill="#fff" xlink:href="#p"/><g><use fill="#fff" xlink:href="#q"/></g><g><use fill="#fff" xlink:href="#r"/></g><g><use fill="#fff" xlink:href="#s"/></g><g><use fill="#fff" xlink:href="#t"/></g><g><use fill="#fff" xlink:href="#u"/></g><g><use fill="#fff" xlink:href="#v"/></g><g><use fill="#fff" xlink:href="#w"/></g><g><use fill="#fff" xlink:href="#x"/></g><g><use fill="#fff" xlink:href="#y"/></g><g><use fill="#fff" xlink:href="#z"/></g><g><use fill="#fff" xlink:href="#A"/></g><g><use fill="#fff" xlink:href="#B"/></g><g><use fill="#fff" xlink:href="#C"/></g><g><use fill="#fff" xlink:href="#D"/></g><g><use fill="#fff" xlink:href="#E"/></g><g><use fill="#fff" xlink:href="#F"/></g><g><use fill="#fff" xlink:href="#G"/></g><g><use fill="#fff" xlink:href="#H"/></g><g><use fill="#fff" xlink:href="#I"/></g><g><use fill="#fff" xlink:href="#J"/></g><g><use fill="#fff" xlink:href="#K"/></g><g><use fill="#fff" xlink:href="#L"/></g><g><use fill="#fff" xlink:href="#M"/></g><g><use fill="#fff" xlink:href="#N"/></g><g><use fill="#fff" xlink:href="#O"/></g><g><use fill="#fbb044" xlink:href="#P"/><g><use fill="#fbb044" xlink:href="#Q"/></g></g><g><use fill="#fbb044" xlink:href="#R"/><g><use fill="#fbb044" xlink:href="#S"/></g></g><g><use fill="#fbb044" xlink:href="#T"/><g><use fill="#fbb044" xlink:href="#U"/></g></g><g><use fill="#fbb044" xlink:href="#V"/><g><use fill="#fbb044" xlink:href="#W"/></g></g><g><use fill="#fff" xlink:href="#X"/></g><g><use fill="#fff" xlink:href="#Y"/></g><g transform="rotate(19 163.5 315)"><use fill="#fff" xlink:href="#Z"/><use fill="#fff" xlink:href="#aa"/><use fill="#fff" xlink:href="#ab"/><use fill="#fff" xlink:href="#ac"/><use fill="#fff" xlink:href="#ad"/><g><use fill="#fff" xlink:href="#ae"/><use fill="#fff" xlink:href="#af"/><use fill="#fff" xlink:href="#ag"/><use fill="#fff" xlink:href="#ah"/><g><use fill="#fff" xlink:href="#ai"/></g><g><use fill="#fff" xlink:href="#aj"/></g><g><use fill="#fff" xlink:href="#ak"/></g></g><g><use fill="#fff" xlink:href="#al"/><g><use fill="#fff" xlink:href="#am"/><use fill="#fff" xlink:href="#an"/><g><use fill="#fff" xlink:href="#ao"/></g></g></g><g><use fill="#fff" xlink:href="#ap"/><g><use fill="#fff" xlink:href="#aq"/><use fill="#fff" xlink:href="#ar"/><g><use fill="#fff" xlink:href="#as"/></g></g></g><g><use fill="#fff" xlink:href="#at"/><g><use fill="#fff" xlink:href="#au"/><use fill="#fff" xlink:href="#av"/><g><use fill="#fff" xlink:href="#aw"/></g></g></g><g><use fill="#fff" xlink:href="#ax"/><g><use fill="#fff" xlink:href="#ay"/><use fill="#fff" xlink:href="#az"/><g><use fill="#fff" xlink:href="#aA"/></g></g></g><g><use fill="#fff" xlink:href="#aB"/></g><g><use fill="#fff" xlink:href="#aC"/></g><g><use fill="#fff" xlink:href="#aD"/></g><g><use fill="#fff" xlink:href="#aE"/></g><g><use fill="#fff" xlink:href="#aF"/></g><g><use fill="#fff" xlink:href="#aG"/></g><g><use fill="#fff" xlink:href="#aH"/></g><g><use fill="#fff" xlink:href="#aI"/></g><g><use fill="#fff" xlink:href="#aJ"/></g><g><use fill="#fff" xlink:href="#aK"/></g><g><use fill="#fff" xlink:href="#aL"/></g><g><use fill="#fff" fill-opacity="0" stroke="#fbb044" stroke-miterlimit="50" stroke-width="4" clip-path="url(&quot;#aM&quot;)" xlink:href="#a"/></g><g><use fill="#fff" fill-opacity="0" stroke="#fbb044" stroke-miterlimit="50" stroke-width="4" clip-path="url(&quot;#aN&quot;)" xlink:href="#b"/></g><g><use fill="#fbb044" xlink:href="#aO"/></g><g><use fill="#fbb044" xlink:href="#aP"/></g><g><use fill="#fbb044" xlink:href="#aQ"/></g></g><g transform="rotate(-25 1234.5 338)"><use fill="#fff" xlink:href="#aR"/><use fill="#fff" xlink:href="#aS"/><use fill="#fff" xlink:href="#aT"/><use fill="#fff" xlink:href="#aU"/><use fill="#fff" xlink:href="#aV"/><use fill="#fff" xlink:href="#aW"/><use fill="#fff" xlink:href="#aX"/><use fill="#fff" xlink:href="#aY"/><use fill="#fff" xlink:href="#aZ"/><use fill="#fff" xlink:href="#ba"/><use fill="#fff" xlink:href="#bb"/><use fill="#fff" xlink:href="#bc"/><use fill="#fff" xlink:href="#bd"/><g><use fill="#fff" xlink:href="#be"/></g><g><use fill="#fff" xlink:href="#bf"/></g><g><use fill="#fff" xlink:href="#bg"/></g><g><use fill="#fff" xlink:href="#bh"/></g><g><use fill="#fff" xlink:href="#bi"/></g><g><use fill="#fff" xlink:href="#bj"/></g><g><use fill="#fff" xlink:href="#bk"/></g><g><use fill="#fff" xlink:href="#bl"/></g><g><use fill="#fff" xlink:href="#bm"/></g><g><use fill="#fff" xlink:href="#bn"/></g><g><use fill="#fff" xlink:href="#bo"/></g><g><use fill="#fff" xlink:href="#bp"/></g><g><use fill="#fff" xlink:href="#bq"/></g><g><use fill="#fff" xlink:href="#br"/></g><g><use fill="#fff" xlink:href="#bs"/></g><g><use fill="#fff" xlink:href="#bt"/><use fill="#fff" xlink:href="#bu"/><g><use fill="#fff" xlink:href="#bv"/></g></g><g><use fill="#fff" xlink:href="#bw"/><use fill="#fff" xlink:href="#bx"/><g><use fill="#fff" xlink:href="#by"/></g></g><g><use fill="#fff" xlink:href="#bz"/></g><g><use fill="#fff" xlink:href="#bA"/></g><g><use fill="#fff" xlink:href="#bB"/></g><g><use fill="#fff" xlink:href="#bC"/></g><g><use fill="#fff" xlink:href="#bD"/></g><g><use fill="#fbb044" xlink:href="#bE"/></g><g><use fill="#fbb044" xlink:href="#bF"/></g><g><use fill="#fff" fill-opacity="0" stroke="#fbb044" stroke-miterlimit="50" stroke-width="2" clip-path="url(&quot;#bG&quot;)" xlink:href="#c"/></g><g><use fill="#fbb044" xlink:href="#bH"/></g><g><use fill="#fbb044" xlink:href="#bI"/></g><g><use fill="#fff" fill-opacity="0" stroke="#fbb044" stroke-miterlimit="50" stroke-width="4" clip-path="url(&quot;#bJ&quot;)" xlink:href="#d"/></g><g><use fill="#fbb044" xlink:href="#bK"/></g></g><g transform="rotate(-7 480 398)"><use fill="#fff" xlink:href="#bL"/><use fill="#fff" xlink:href="#bM"/><use fill="#fff" xlink:href="#bN"/><use fill="#fff" xlink:href="#bO"/><use fill="#fff" xlink:href="#bP"/><use fill="#fff" xlink:href="#bQ"/><use fill="#fff" xlink:href="#bR"/><use fill="#fff" xlink:href="#bS"/><use fill="#fff" xlink:href="#bT"/><use fill="#fff" xlink:href="#bU"/><use fill="#fff" xlink:href="#bV"/><use fill="#fff" xlink:href="#bW"/><use fill="#fff" xlink:href="#bX"/><g><use fill="#fff" xlink:href="#bY"/></g><g><use fill="#fff" xlink:href="#bZ"/></g><g><use fill="#fff" xlink:href="#ca"/></g><g><use fill="#fff" xlink:href="#cb"/></g><g><use fill="#fff" xlink:href="#cc"/></g><g><use fill="#fff" xlink:href="#cd"/></g><g><use fill="#fff" xlink:href="#ce"/></g><g><use fill="#fff" xlink:href="#cf"/></g><g><use fill="#fff" xlink:href="#cg"/></g><g><use fill="#fff" xlink:href="#ch"/></g><g><use fill="#fff" xlink:href="#ci"/></g><g><use fill="#fff" xlink:href="#cj"/></g><g><use fill="#fff" xlink:href="#ck"/></g><g><use fill="#fff" xlink:href="#cl"/></g><g><use fill="#fff" xlink:href="#cm"/></g><g><use fill="#fff" xlink:href="#cn"/></g><g><use fill="#fff" xlink:href="#co"/></g><g><use fill="#fff" xlink:href="#cp"/></g><g><use fill="#fff" xlink:href="#cq"/></g><g><use fill="#fff" xlink:href="#cr"/></g><g><use fill="#fff" xlink:href="#cs"/></g><g><use fill="#fff" fill-opacity="0" stroke="#fbb044" stroke-miterlimit="50" stroke-width="4" clip-path="url(&quot;#ct&quot;)" xlink:href="#e"/></g><g><use fill="#fbb044" xlink:href="#cu"/></g><g><use fill="#fbb044" xlink:href="#cv"/></g><g><use fill="#fbb044" xlink:href="#cw"/></g></g><g><use fill="#fff" fill-opacity="0" stroke="#fff" stroke-dasharray="6 6 6" stroke-linecap="round" stroke-linejoin="round" stroke-miterlimit="50" xlink:href="#cx"/></g></g></svg>