<?xml version="1.0" standalone="no"?>
<!DOCTYPE svg PUBLIC "-//W3C//DTD SVG 20010904//EN"
 "http://www.w3.org/TR/2001/REC-SVG-20010904/DTD/svg10.dtd">
<svg version="1.0" xmlns="http://www.w3.org/2000/svg"
 width="260.000000pt" height="260.000000pt" viewBox="0 0 260.000000 260.000000"
 preserveAspectRatio="xMidYMid meet">
<metadata>
Created by potrace 1.11, written by Peter Selinger 2001-2013
</metadata>
<g transform="translate(0.000000,260.000000) scale(0.100000,-0.100000)"
fill="#000000" stroke="none">
<path d="M0 1300 l0 -1300 1300 0 1300 0 0 1300 0 1300 -1300 0 -1300 0 0
-1300z m1454 219 c33 -16 40 -36 15 -50 -17 -9 -24 -6 -44 15 -27 30 -34 31
-59 13 -13 -10 -19 -32 -23 -80 l-6 -67 42 0 c54 0 51 -24 -2 -28 l-37 -3 0
-98 c0 -100 7 -121 41 -121 10 0 21 -4 24 -10 4 -6 -24 -10 -77 -9 -78 0 -82
1 -60 16 20 14 22 23 22 119 0 97 -1 104 -20 104 -11 0 -20 5 -20 11 0 6 9 13
20 16 15 4 20 14 20 43 0 106 79 167 164 129z m146 -202 l-1 -207 26 -10 c14
-5 25 -12 25 -15 0 -3 -36 -5 -80 -5 -75 0 -105 11 -60 23 19 5 20 14 20 191
0 175 -1 187 -20 198 -11 7 -20 16 -20 20 0 6 67 16 98 14 11 -1 13 -42 12
-209z m198 147 c4 -38 -18 -59 -52 -50 -30 7 -41 37 -26 66 9 16 19 20 43 18
28 -3 32 -7 35 -34z m442 -74 c0 -28 3 -30 35 -30 28 0 35 -4 35 -20 0 -16 -7
-20 -35 -20 l-36 0 3 -102 3 -103 38 2 c46 3 48 -10 3 -31 -43 -20 -66 -20
-94 0 -20 14 -22 23 -22 125 0 102 -1 109 -20 109 -11 0 -20 7 -20 15 0 8 7
15 15 15 8 0 27 16 42 35 35 43 53 45 53 5z m-1745 -54 c31 -20 32 -42 3 -50
-17 -4 -28 1 -43 19 -47 57 -115 16 -115 -70 0 -93 64 -150 135 -121 19 8 37
11 40 6 9 -15 -42 -42 -88 -47 -114 -11 -184 107 -124 211 41 72 127 95 192
52z m284 -3 c86 -64 76 -197 -20 -245 -63 -33 -140 -14 -183 44 -26 37 -27
112 0 157 38 66 142 89 203 44z m201 -3 l0 -30 42 30 c47 35 86 38 119 11 22
-18 24 -28 27 -129 3 -102 5 -111 25 -118 19 -6 16 -8 -15 -11 -21 -2 -55 -2
-75 0 -33 3 -35 5 -15 12 21 7 22 13 22 100 0 74 -4 97 -16 110 -22 21 -62 12
-91 -21 -19 -21 -23 -37 -23 -98 0 -65 3 -75 23 -89 21 -15 18 -16 -50 -16
-78 -1 -89 4 -48 19 25 10 26 11 23 112 -3 98 -4 103 -28 115 -27 13 -19 19
35 26 17 2 33 5 38 6 4 0 7 -13 7 -29z m820 -100 c0 -107 3 -130 14 -130 8 0
18 -4 21 -10 4 -6 -24 -10 -77 -9 -78 0 -82 1 -60 16 20 14 22 23 22 120 0 96
-2 105 -20 110 -47 12 -14 26 73 31 l27 2 0 -130z m248 124 c17 -5 22 -14 22
-40 0 -40 -12 -43 -34 -9 -19 29 -66 34 -86 10 -20 -24 -5 -42 52 -63 68 -25
93 -57 84 -106 -11 -60 -82 -89 -164 -67 -40 11 -42 13 -42 51 0 31 3 38 15
34 8 -4 15 -12 15 -20 0 -21 45 -46 76 -42 66 8 50 64 -26 87 -48 14 -70 43
-70 92 0 64 70 96 158 73z"/>
<path d="M638 1313 c-37 -42 -30 -144 13 -189 51 -54 129 -14 129 67 0 48 -27
117 -51 129 -28 16 -74 12 -91 -7z"/>
</g>
</svg>
