<svg xmlns="http://www.w3.org/2000/svg" xmlns:xlink="http://www.w3.org/1999/xlink" width="19" height="19" viewBox="0 0 19 19"><defs><path id="a" d="M591 680.36v14.06c0 .87-.71 1.58-1.58 1.58h-15.84c-.87 0-1.58-.71-1.58-1.58v-14.06c0-.87.71-1.58 1.58-1.58h2.58v-1.19a.6.6 0 0 1 1.18 0v1.19h3.57v-1.19a.6.6 0 0 1 1.18 0v1.19h3.57v-1.19a.6.6 0 0 1 1.18 0v1.19h2.58c.87 0 1.58.71 1.58 1.58zm-1.19 0a.4.4 0 0 0-.39-.39h-2.58v1.19a.6.6 0 0 1-1.18 0v-1.19h-3.57v1.19a.6.6 0 0 1-1.18 0v-1.19h-3.57v1.19a.6.6 0 0 1-1.18 0v-1.19h-2.58a.4.4 0 0 0-.39.39v14.06c0 .21.18.39.39.39h15.84a.4.4 0 0 0 .39-.39z"/><path id="b" d="M576 685.78V684h2.38v1.78z"/><path id="c" d="M576 688.78V687h2.38v1.78z"/><path id="d" d="M576 691.78V690h2.38v1.78z"/><path id="e" d="M580 691.78V690h2.38v1.78z"/><path id="f" d="M580 688.78V687h2.38v1.78z"/><path id="g" d="M580 685.78V684h2.38v1.78z"/><path id="h" d="M584 691.78V690h2.38v1.78z"/><path id="i" d="M584 688.78V687h2.38v1.78z"/><path id="j" d="M584 685.78V684h2.38v1.78z"/></defs><g transform="translate(-572 -677)"><use fill="#f2706d" xlink:href="#a"/><use fill="#f2706d" xlink:href="#b"/><use fill="#f2706d" xlink:href="#c"/><use fill="#f2706d" xlink:href="#d"/><use fill="#f2706d" xlink:href="#e"/><g><use fill="#f2706d" xlink:href="#f"/></g><g><use fill="#f2706d" xlink:href="#g"/></g><g><use fill="#f2706d" xlink:href="#h"/></g><g><use fill="#f2706d" xlink:href="#i"/></g><g><use fill="#f2706d" xlink:href="#j"/></g></g></svg>